<svg width="271" height="271" viewBox="0 0 271 271" fill="none" xmlns="http://www.w3.org/2000/svg">
<circle cx="135.5" cy="135.5" r="135.5" fill="white"/>
<path d="M75.9749 168.763V100.451L92.2582 90.9085V126.73H108.92V81.339L126.718 71.0632L125.582 217.614L134.671 222.915L211.165 178.988V91.5121L177.083 70.6845V49.4783L230.099 80.5303V189.591L135.049 244.5L109.299 229.731L109.299 144.149H91.8795V178.23L75.9749 168.763Z" fill="#3E232C" stroke="#3E232C"/>
<path d="M91.6259 198.301L91.5009 219.507L40 189.591V80.3193L135.011 26L160.843 40.7686V168.37L194.503 148.693V168.385L143.252 199.058V51.0222L134.671 46.0702L57.591 90.3761V178.842L91.6259 198.301Z" fill="#3E232C" stroke="#3E232C"/>
</svg>
